# xmcd
#
# Track frame offsets:
#	150
#	13595
#	28383
#	39040
#	49728
#	62128
#	74595
#	88753
#	102320
#	114065
#	130513
#	144060
#	156908
#	168338
#	181878
#	195690
#	208455
#	217550
#	230010
#	242830
#	252233
#	270613
#
# Disc length: 3835 seconds
# Revision: 4
# Processed by: cddbd v1.5.2PL0 Copyright (c) Steve Scherf et al.
# Submitted via: dBpowerAMP V12.0
#
DISCID=310ef916
DTITLE=Various Artist - Contemporary Country The Mid 70s Pure Gold
DYEAR=1992
DGENRE=Country
TTITLE0=Billy Swan - I Can Help
TTITLE1=Joe Stampley - All These Things
TTITLE2=Dolly Parton - Love Is Like A Butterfly
TTITLE3=Don Williams - Turn Out The Light and Love Me Tonight
TTITLE4=George Jones - The Door
TTITLE5=Freddy Fender - Wasted Days and Wasted Nights
TTITLE6=Moe Bandy - Hank Williams  You Wrote My Life
TTITLE7=Gary Stewart - Drinkin Thing
TTITLE8=Lefty Frizzell - I Never Go Around Mirrors
TTITLE9=Cal Smith - Country Bumpkin
TTITLE10=Emmylou Harris - Sweet Dreams
TTITLE11=Tom T Hall - Faster Horses The Cowboy and The Poet
TTITLE12=Loretta Lynn - Love Is The Foundation
TTITLE13=Ronnie Milsap - I'm A Stand by My Woman Man
TTITLE14=Tammy Wynette - Til I Can Make It On My Own
TTITLE15=Conway Twitty - I See The Want To In Your Eyes
TTITLE16=Johnny Rodriguez - Just Get Up and Close The Door
TTITLE17=Charlie Rich - A Very Special Love Song
TTITLE18=Tanya Tucker - San Antonio Stroll
TTITLE19=Willie Nelson - If You've Got The Money I've Got The Time
TTITLE20=Johnny Cash - One Piece At A Time
TTITLE21=CW Mccall - Convoy
EXTD=
EXTT0=
EXTT1=
EXTT2=
EXTT3=
EXTT4=
EXTT5=
EXTT6=
EXTT7=
EXTT8=
EXTT9=
EXTT10=
EXTT11=
EXTT12=
EXTT13=
EXTT14=
EXTT15=
EXTT16=
EXTT17=
EXTT18=
EXTT19=
EXTT20=
EXTT21=
PLAYORDER=
